<svg version="1.1" id="Слой_1" xmlns="http://www.w3.org/2000/svg" x="0" y="0" viewBox="0 0 15 22" xml:space="preserve"><style>.st0{fill:#fff}</style><path class="st0" d="M7.5 10.8c-2.9 0-5.2-2.4-5.2-5.3S4.6.2 7.5.2s5.2 2.4 5.2 5.3-2.3 5.3-5.2 5.3zm0-8.9c-1.9 0-3.4 1.6-3.4 3.5S5.6 9 7.5 9s3.4-1.6 3.4-3.5-1.5-3.6-3.4-3.6z"/><path class="st0" d="M12.9 21.9H2.1c-1.1 0-2-.9-2-2v-4.4C.1 11.9 2.9 9 6.4 9h2.2c3.5 0 6.3 2.9 6.3 6.5v4.4c0 1.1-.9 2-2 2zM6.4 10.8c-2.5 0-4.5 2.1-4.5 4.7v4.4c0 .1.1.2.2.2h10.8c.1 0 .2-.1.2-.2v-4.4c0-2.6-2-4.7-4.5-4.7H6.4z"/></svg>